<svg width="103" height="114" viewBox="0 0 103 114" fill="none" xmlns="http://www.w3.org/2000/svg">
<path d="M73.4984 107.382C80.401 107.382 85.9968 101.786 85.9968 94.8821C85.9968 87.9785 80.401 82.3821 73.4984 82.3821C66.5957 82.3821 61 87.9785 61 94.8821C61 101.786 66.5957 107.382 73.4984 107.382Z" fill="#99F95F"/>
<path d="M68.5586 93.0879C69.5208 93.0879 70.3008 92.3079 70.3008 91.3457C70.3008 90.3835 69.5208 89.6035 68.5586 89.6035C67.5964 89.6035 66.8164 90.3835 66.8164 91.3457C66.8164 92.3079 67.5964 93.0879 68.5586 93.0879Z" fill="#2E2A2C"/>
<path d="M78.4688 93.0879C79.431 93.0879 80.211 92.3079 80.211 91.3457C80.211 90.3835 79.431 89.6035 78.4688 89.6035C77.5066 89.6035 76.7266 90.3835 76.7266 91.3457C76.7266 92.3079 77.5066 93.0879 78.4688 93.0879Z" fill="#2E2A2C"/>
<path d="M77.9356 97.3804C77.9356 99.9772 75.8305 102.085 73.2315 102.085C70.6347 102.085 68.5273 99.9794 68.5273 97.3804H77.9356Z" fill="#2E2A2C"/>
<path d="M12.6319 87.2141H19.8039C21.2119 87.2141 22.2679 87.5441 22.9719 88.2041C23.6759 88.8641 24.0279 89.8101 24.0279 91.0421C24.0279 91.7754 23.8813 92.4061 23.5879 92.9341C23.3093 93.4474 22.9133 93.8434 22.3999 94.1221C23.1039 94.3421 23.6393 94.7014 24.0059 95.2001C24.3726 95.6841 24.5559 96.3661 24.5559 97.2461C24.5559 98.6101 24.1673 99.6441 23.3899 100.348C22.6273 101.037 21.5199 101.382 20.0679 101.382H12.6319V87.2141ZM19.2539 93.0881C20.5886 93.0881 21.2559 92.4867 21.2559 91.2841C21.2559 90.6387 21.0873 90.1694 20.7499 89.8761C20.4273 89.5681 19.8553 89.4141 19.0339 89.4141H15.6019V93.0881H19.2539ZM19.3639 99.2041C20.1266 99.2041 20.6766 99.0501 21.0139 98.7421C21.3659 98.4194 21.5419 97.8767 21.5419 97.1141C21.5419 96.4687 21.3586 95.9994 20.9919 95.7061C20.6399 95.3981 20.0313 95.2441 19.1659 95.2441H15.6019V99.2041H19.3639ZM26.6183 87.2141H29.6103L33.7683 95.7281L37.9263 87.2141H40.8963V101.382H37.9263V92.1641L34.6263 98.9401H32.9103L29.5883 92.1641V101.382H26.6183V87.2141ZM43.3976 87.2141H46.3676V101.382H43.3976V87.2141Z" fill="black"/>
<path d="M5.94005 77.5621C4.70405 77.5621 3.71405 77.1661 2.97005 76.3741C2.23805 75.5701 1.87205 74.3521 1.87205 72.7201C1.87205 71.0521 2.30405 69.7621 3.16805 68.8501C4.03205 67.9381 5.29205 67.4821 6.94805 67.4821C8.05205 67.4821 8.97006 67.6681 9.70206 68.0401C10.4461 68.4121 10.9861 68.9041 11.3221 69.5161C11.6701 70.1281 11.8441 70.7941 11.8441 71.5141V77.3821H9.41406V71.6761C9.41406 70.9441 9.22206 70.3801 8.83806 69.9841C8.46605 69.5761 7.82405 69.3721 6.91205 69.3721C5.08805 69.3721 4.17605 70.4881 4.17605 72.7201C4.17605 73.7761 4.35605 74.5321 4.71605 74.9881C5.08805 75.4441 5.64005 75.6721 6.37205 75.6721C6.92405 75.6721 7.33805 75.6241 7.61405 75.5281V77.3101C7.17005 77.4781 6.61205 77.5621 5.94005 77.5621ZM7.31382 63.4681H9.29382V64.6741H13.7758L13.6858 66.3301H7.31382V63.4681ZM18.1858 77.5621C16.7578 77.5621 15.6718 77.2321 14.9278 76.5721C14.1838 75.9121 13.8118 74.9881 13.8118 73.8001V73.1881C13.8118 72.7561 13.8958 72.3781 14.0638 72.0541C14.2438 71.7181 14.4838 71.3521 14.7838 70.9561C14.9758 70.7041 15.1138 70.5061 15.1978 70.3621C15.2938 70.2061 15.3418 70.0561 15.3418 69.9121C15.3418 69.7321 15.2998 69.6121 15.2158 69.5521C15.1318 69.4921 14.9818 69.4621 14.7658 69.4621H13.5958L13.7938 67.6621H16.3138C17.3098 67.6621 17.8078 68.1241 17.8078 69.0481C17.8078 69.4081 17.7418 69.7381 17.6098 70.0381C17.4778 70.3261 17.2858 70.6801 17.0338 71.1001C16.7698 71.4961 16.5718 71.8501 16.4398 72.1621C16.3078 72.4621 16.2418 72.7981 16.2418 73.1701V73.9441C16.2418 74.5081 16.4038 74.9401 16.7278 75.2401C17.0638 75.5281 17.5498 75.6721 18.1858 75.6721C19.5058 75.6721 20.1658 75.0721 20.1658 73.8721V72.7381C20.1658 72.2821 20.0878 71.9581 19.9318 71.7661C19.7758 71.5741 19.4998 71.4781 19.1038 71.4781H18.5998L18.7078 69.7861H19.0318C19.4278 69.7861 19.7158 69.6841 19.8958 69.4801C20.0758 69.2761 20.1658 68.9521 20.1658 68.5081V67.4821H22.5958V68.4541C22.5958 69.0301 22.5058 69.4861 22.3258 69.8221C22.1458 70.1581 21.8218 70.4281 21.3538 70.6321C21.8338 70.8601 22.1578 71.1421 22.3258 71.4781C22.5058 71.8141 22.5958 72.2641 22.5958 72.8281V73.7641C22.5958 74.9401 22.1998 75.8701 21.4078 76.5541C20.6278 77.2261 19.5538 77.5621 18.1858 77.5621ZM28.0981 77.5621C27.0541 77.5621 26.2321 77.2441 25.6321 76.6081C25.0321 75.9721 24.7321 75.0961 24.7321 73.9801V67.6621H27.1621V73.8361C27.1621 74.4841 27.3061 74.9521 27.5941 75.2401C27.8821 75.5281 28.3201 75.6721 28.9081 75.6721C29.3521 75.6721 29.7901 75.5761 30.2221 75.3841C30.6661 75.1921 31.0201 74.9521 31.2841 74.6641V67.6621H33.7141V77.3821H31.4821L31.3741 76.4281C30.4381 77.1841 29.3461 77.5621 28.0981 77.5621ZM25.977 64.6741H31.737V63.2161H33.717V66.3301H25.851L25.977 64.6741ZM41.475 77.5621C40.227 77.5621 39.135 77.1841 38.199 76.4281L38.091 77.3821H35.859V67.6621H38.289V74.6641C38.553 74.9521 38.901 75.1921 39.333 75.3841C39.777 75.5761 40.221 75.6721 40.665 75.6721C41.253 75.6721 41.691 75.5281 41.979 75.2401C42.267 74.9521 42.411 74.4841 42.411 73.8361V67.6621H44.841V73.9801C44.841 75.0961 44.541 75.9721 43.941 76.6081C43.341 77.2441 42.519 77.5621 41.475 77.5621ZM49.434 77.5621C48.27 77.5621 47.238 77.3701 46.338 76.9861V75.1321C47.154 75.4921 47.994 75.6721 48.858 75.6721C49.998 75.6721 50.808 75.4381 51.288 74.9701C51.768 74.4901 52.008 73.6741 52.008 72.5221C52.008 71.3701 51.768 70.5601 51.288 70.0921C50.808 69.6121 49.998 69.3721 48.858 69.3721C47.994 69.3721 47.154 69.5521 46.338 69.9121V68.0581C47.238 67.6741 48.27 67.4821 49.434 67.4821C51.066 67.4821 52.284 67.9081 53.088 68.7601C53.904 69.6121 54.312 70.8661 54.312 72.5221C54.312 74.1781 53.904 75.4321 53.088 76.2841C52.284 77.1361 51.066 77.5621 49.434 77.5621ZM58.9058 77.5621C57.8978 77.5621 57.0818 77.3161 56.4578 76.8241C55.8338 76.3321 55.5218 75.5581 55.5218 74.5021C55.5218 73.5301 55.8518 72.7861 56.5118 72.2701C57.1718 71.7421 58.1198 71.4781 59.3558 71.4781H62.1098V71.0101C62.1098 70.4101 61.9418 69.9901 61.6058 69.7501C61.2698 69.4981 60.6758 69.3721 59.8238 69.3721C58.6958 69.3721 57.6218 69.5341 56.6018 69.8581V68.0401C57.1178 67.8721 57.6998 67.7401 58.3478 67.6441C58.9958 67.5361 59.6198 67.4821 60.2198 67.4821C61.6718 67.4821 62.7518 67.7941 63.4598 68.4181C64.1798 69.0301 64.5398 69.9781 64.5398 71.2621V77.3821H62.1098V73.2601H59.4998C58.9478 73.2601 58.5278 73.3561 58.2398 73.5481C57.9638 73.7401 57.8258 74.0581 57.8258 74.5021C57.8258 74.9461 57.9518 75.2521 58.2038 75.4201C58.4678 75.5881 58.9178 75.6721 59.5538 75.6721C60.1058 75.6721 60.5198 75.6241 60.7958 75.5281V77.3101C60.2558 77.4781 59.6258 77.5621 58.9058 77.5621ZM66.7635 74.2861C66.7635 73.6741 66.8655 73.1701 67.0695 72.7741C67.2735 72.3661 67.6335 72.0841 68.1495 71.9281L66.3135 71.4421V69.1201C66.8775 68.6521 67.5675 68.2621 68.3835 67.9501C69.2115 67.6381 70.1175 67.4821 71.1015 67.4821C72.6375 67.4821 73.7895 67.7941 74.5575 68.4181C75.3375 69.0301 75.7275 70.0621 75.7275 71.5141V77.3821H73.2975V71.4601C73.2975 70.7041 73.1175 70.1701 72.7575 69.8581C72.4095 69.5341 71.8155 69.3721 70.9755 69.3721C70.4595 69.3721 69.9735 69.4501 69.5175 69.6061C69.0615 69.7621 68.6895 69.9601 68.4015 70.2001V70.4521L70.3995 70.9921V72.4681C69.9315 72.5881 69.6135 72.7861 69.4455 73.0621C69.2775 73.3261 69.1935 73.7401 69.1935 74.3041V77.3821H66.7635V74.2861ZM81.3087 71.4061C81.3087 70.7101 81.1707 70.2001 80.8947 69.8761C80.6307 69.5401 80.1387 69.3721 79.4187 69.3721C79.0347 69.3721 78.6207 69.4141 78.1767 69.4981C77.7327 69.5821 77.3307 69.6961 76.9707 69.8401V68.0581C77.3427 67.8901 77.7927 67.7521 78.3207 67.6441C78.8487 67.5361 79.3707 67.4821 79.8867 67.4821C81.2427 67.4821 82.2207 67.7701 82.8207 68.3461C83.4327 68.9221 83.7387 69.8281 83.7387 71.0641V77.3821H81.3087V71.4061ZM90.0624 77.5621C88.6464 77.5621 87.5124 77.3161 86.6604 76.8241C85.8204 76.3321 85.4004 75.5341 85.4004 74.4301C85.4004 73.9861 85.5024 73.5841 85.7064 73.2241C85.9104 72.8521 86.2164 72.5521 86.6244 72.3241C86.2644 72.1681 85.9764 71.9221 85.7604 71.5861C85.5444 71.2381 85.4364 70.8301 85.4364 70.3621C85.4364 69.4381 85.7244 68.7301 86.3004 68.2381C86.8884 67.7341 87.6744 67.4821 88.6584 67.4821C89.3304 67.4821 89.8884 67.5661 90.3324 67.7341V69.5161C89.9844 69.4201 89.5704 69.3721 89.0904 69.3721C88.6344 69.3721 88.2924 69.4501 88.0644 69.6061C87.8484 69.7621 87.7404 70.0141 87.7404 70.3621C87.7404 70.7461 87.8604 71.0161 88.1004 71.1721C88.3404 71.3281 88.7244 71.4061 89.2524 71.4061H90.2604L90.3504 73.1881H89.2344C88.2144 73.1881 87.7044 73.6021 87.7044 74.4301C87.7044 74.8501 87.8844 75.1621 88.2444 75.3661C88.6164 75.5701 89.1864 75.6721 89.9544 75.6721C91.4784 75.6721 92.2404 75.0421 92.2404 73.7821V67.6621H94.6704V73.5661C94.6704 74.9341 94.2804 75.9421 93.5004 76.5901C92.7204 77.2381 91.5744 77.5621 90.0624 77.5621Z" fill="#4A5A67"/>
<path d="M71.0404 41.2622L91.9132 30.3264C88.0539 22.9757 82.2571 16.8016 75.19 12.4995L62.9541 32.6425C66.3712 34.7227 69.1741 37.7082 71.0404 41.2622Z" fill="#CE5022"/>
<path d="M91.9129 30.3264L71.04 41.2622C72.6468 44.3224 73.5606 47.8039 73.5606 51.5006H97.1256C97.1256 43.8557 95.2358 36.6557 91.9129 30.3264Z" fill="#C54C20"/>
<path d="M40.0435 32.6425C43.3828 30.61 47.3039 29.4388 51.4989 29.4388V5.87378C42.8232 5.87378 34.7134 8.29615 27.8076 12.5L40.0435 32.6425Z" fill="#E09A37"/>
<path d="M62.9544 32.6425L75.1903 12.4995C68.2845 8.29566 60.1747 5.87329 51.499 5.87329V29.4383C55.6939 29.4387 59.6155 30.6099 62.9544 32.6425Z" fill="#DA8F25"/>
<path d="M31.9577 41.2622L11.0848 30.3264C7.76198 36.6557 5.87207 43.8557 5.87207 51.5006H29.4371C29.4371 47.8039 30.3509 44.3228 31.9577 41.2622Z" fill="#35E292"/>
<path d="M40.0436 32.6425L27.8078 12.4995C20.7407 16.8016 14.9443 22.9757 11.085 30.3264L31.9578 41.2622C33.8241 37.7082 36.6265 34.7227 40.0436 32.6425Z" fill="#2AD586"/>
<path d="M31.7668 39.1996L64.181 42.2422L58.5532 57.7043L31.7668 39.1996Z" fill="#4A5A67"/>
<path d="M102 51.5004C102 43.039 99.9083 35.0701 96.2307 28.0648C91.9589 19.9287 85.5434 13.0954 77.7216 8.33379C70.078 3.68105 61.1024 1 51.5 1C41.8976 1 32.9215 3.68105 25.2784 8.33379C17.4566 13.0954 11.0406 19.9287 6.76924 28.0648C3.09123 35.0701 1 43.039 1 51.5004" stroke="#2C2C2C" stroke-miterlimit="10" stroke-linecap="round"/>
</svg>
