<svg width="103" height="114" viewBox="0 0 103 114" fill="none" xmlns="http://www.w3.org/2000/svg">
<path d="M73.5 107C80.4036 107 86 101.404 86 94.5C86 87.5965 80.4036 82 73.5 82C66.5965 82 61 87.5965 61 94.5C61 101.404 66.5965 107 73.5 107Z" fill="#E09A37"/>
<path d="M70.2982 90.9379C70.2982 91.8995 69.5192 92.6801 68.5577 92.6801C67.5961 92.6801 66.8154 91.9011 66.8154 90.9379C66.8154 89.9763 67.5945 89.1973 68.5577 89.1973C69.5192 89.1956 70.2982 89.9763 70.2982 90.9379Z" fill="#2E2A2C"/>
<path d="M78.4668 92.6798C79.429 92.6798 80.2091 91.8997 80.2091 90.9375C80.2091 89.9753 79.429 89.1953 78.4668 89.1953C77.5046 89.1953 76.7246 89.9753 76.7246 90.9375C76.7246 91.8997 77.5046 92.6798 78.4668 92.6798Z" fill="#2E2A2C"/>
<path d="M70.6436 97.6309C70.6436 97.6309 73.512 99.6567 76.3787 97.6309" stroke="#2E2A2C" stroke-miterlimit="10" stroke-linecap="round"/>
<path d="M12.6319 87.2138H19.8039C21.2119 87.2138 22.2679 87.5438 22.9719 88.2038C23.6759 88.8638 24.0279 89.8098 24.0279 91.0418C24.0279 91.7752 23.8813 92.4058 23.5879 92.9338C23.3093 93.4472 22.9133 93.8432 22.3999 94.1218C23.1039 94.3418 23.6393 94.7012 24.0059 95.1998C24.3726 95.6838 24.5559 96.3658 24.5559 97.2458C24.5559 98.6098 24.1673 99.6438 23.3899 100.348C22.6273 101.037 21.5199 101.382 20.0679 101.382H12.6319V87.2138ZM19.2539 93.0878C20.5886 93.0878 21.2559 92.4865 21.2559 91.2838C21.2559 90.6385 21.0873 90.1692 20.7499 89.8758C20.4273 89.5678 19.8553 89.4138 19.0339 89.4138H15.6019V93.0878H19.2539ZM19.3639 99.2038C20.1266 99.2038 20.6766 99.0498 21.0139 98.7418C21.3659 98.4192 21.5419 97.8765 21.5419 97.1138C21.5419 96.4685 21.3586 95.9992 20.9919 95.7058C20.6399 95.3978 20.0313 95.2438 19.1659 95.2438H15.6019V99.2038H19.3639ZM26.6183 87.2138H29.6103L33.7683 95.7278L37.9263 87.2138H40.8963V101.382H37.9263V92.1638L34.6263 98.9398H32.9103L29.5883 92.1638V101.382H26.6183V87.2138ZM43.3976 87.2138H46.3676V101.382H43.3976V87.2138Z" fill="black"/>
<path d="M5.94005 77.5618C4.70405 77.5618 3.71405 77.1658 2.97005 76.3738C2.23805 75.5698 1.87205 74.3518 1.87205 72.7198C1.87205 71.0518 2.30405 69.7618 3.16805 68.8498C4.03205 67.9378 5.29205 67.4818 6.94805 67.4818C8.05205 67.4818 8.97006 67.6678 9.70206 68.0398C10.4461 68.4118 10.9861 68.9038 11.3221 69.5158C11.6701 70.1278 11.8441 70.7938 11.8441 71.5138V77.3818H9.41406V71.6758C9.41406 70.9438 9.22206 70.3798 8.83806 69.9838C8.46605 69.5758 7.82405 69.3718 6.91205 69.3718C5.08805 69.3718 4.17605 70.4878 4.17605 72.7198C4.17605 73.7758 4.35605 74.5318 4.71605 74.9878C5.08805 75.4438 5.64005 75.6718 6.37205 75.6718C6.92405 75.6718 7.33805 75.6238 7.61405 75.5278V77.3098C7.17005 77.4778 6.61205 77.5618 5.94005 77.5618ZM7.31382 63.4678H9.29382V64.6738H13.7758L13.6858 66.3298H7.31382V63.4678ZM18.1858 77.5618C16.7578 77.5618 15.6718 77.2318 14.9278 76.5718C14.1838 75.9118 13.8118 74.9878 13.8118 73.7998V73.1878C13.8118 72.7558 13.8958 72.3778 14.0638 72.0538C14.2438 71.7178 14.4838 71.3518 14.7838 70.9558C14.9758 70.7038 15.1138 70.5058 15.1978 70.3618C15.2938 70.2058 15.3418 70.0558 15.3418 69.9118C15.3418 69.7318 15.2998 69.6118 15.2158 69.5518C15.1318 69.4918 14.9818 69.4618 14.7658 69.4618H13.5958L13.7938 67.6618H16.3138C17.3098 67.6618 17.8078 68.1238 17.8078 69.0478C17.8078 69.4078 17.7418 69.7378 17.6098 70.0378C17.4778 70.3258 17.2858 70.6798 17.0338 71.0998C16.7698 71.4958 16.5718 71.8498 16.4398 72.1618C16.3078 72.4618 16.2418 72.7978 16.2418 73.1698V73.9438C16.2418 74.5078 16.4038 74.9398 16.7278 75.2398C17.0638 75.5278 17.5498 75.6718 18.1858 75.6718C19.5058 75.6718 20.1658 75.0718 20.1658 73.8718V72.7378C20.1658 72.2818 20.0878 71.9578 19.9318 71.7658C19.7758 71.5738 19.4998 71.4778 19.1038 71.4778H18.5998L18.7078 69.7858H19.0318C19.4278 69.7858 19.7158 69.6838 19.8958 69.4798C20.0758 69.2758 20.1658 68.9518 20.1658 68.5078V67.4818H22.5958V68.4538C22.5958 69.0298 22.5058 69.4858 22.3258 69.8218C22.1458 70.1578 21.8218 70.4278 21.3538 70.6318C21.8338 70.8598 22.1578 71.1418 22.3258 71.4778C22.5058 71.8138 22.5958 72.2638 22.5958 72.8278V73.7638C22.5958 74.9398 22.1998 75.8698 21.4078 76.5538C20.6278 77.2258 19.5538 77.5618 18.1858 77.5618ZM28.0981 77.5618C27.0541 77.5618 26.2321 77.2438 25.6321 76.6078C25.0321 75.9718 24.7321 75.0958 24.7321 73.9798V67.6618H27.1621V73.8358C27.1621 74.4838 27.3061 74.9518 27.5941 75.2398C27.8821 75.5278 28.3201 75.6718 28.9081 75.6718C29.3521 75.6718 29.7901 75.5758 30.2221 75.3838C30.6661 75.1918 31.0201 74.9518 31.2841 74.6638V67.6618H33.7141V77.3818H31.4821L31.3741 76.4278C30.4381 77.1838 29.3461 77.5618 28.0981 77.5618ZM25.977 64.6738H31.737V63.2158H33.717V66.3298H25.851L25.977 64.6738ZM41.475 77.5618C40.227 77.5618 39.135 77.1838 38.199 76.4278L38.091 77.3818H35.859V67.6618H38.289V74.6638C38.553 74.9518 38.901 75.1918 39.333 75.3838C39.777 75.5758 40.221 75.6718 40.665 75.6718C41.253 75.6718 41.691 75.5278 41.979 75.2398C42.267 74.9518 42.411 74.4838 42.411 73.8358V67.6618H44.841V73.9798C44.841 75.0958 44.541 75.9718 43.941 76.6078C43.341 77.2438 42.519 77.5618 41.475 77.5618ZM49.434 77.5618C48.27 77.5618 47.238 77.3698 46.338 76.9858V75.1318C47.154 75.4918 47.994 75.6718 48.858 75.6718C49.998 75.6718 50.808 75.4378 51.288 74.9698C51.768 74.4898 52.008 73.6738 52.008 72.5218C52.008 71.3698 51.768 70.5598 51.288 70.0918C50.808 69.6118 49.998 69.3718 48.858 69.3718C47.994 69.3718 47.154 69.5518 46.338 69.9118V68.0578C47.238 67.6738 48.27 67.4818 49.434 67.4818C51.066 67.4818 52.284 67.9078 53.088 68.7598C53.904 69.6118 54.312 70.8658 54.312 72.5218C54.312 74.1778 53.904 75.4318 53.088 76.2838C52.284 77.1358 51.066 77.5618 49.434 77.5618ZM58.9058 77.5618C57.8978 77.5618 57.0818 77.3158 56.4578 76.8238C55.8338 76.3318 55.5218 75.5578 55.5218 74.5018C55.5218 73.5298 55.8518 72.7858 56.5118 72.2698C57.1718 71.7418 58.1198 71.4778 59.3558 71.4778H62.1098V71.0098C62.1098 70.4098 61.9418 69.9898 61.6058 69.7498C61.2698 69.4978 60.6758 69.3718 59.8238 69.3718C58.6958 69.3718 57.6218 69.5338 56.6018 69.8578V68.0398C57.1178 67.8718 57.6998 67.7398 58.3478 67.6438C58.9958 67.5358 59.6198 67.4818 60.2198 67.4818C61.6718 67.4818 62.7518 67.7938 63.4598 68.4178C64.1798 69.0298 64.5398 69.9778 64.5398 71.2618V77.3818H62.1098V73.2598H59.4998C58.9478 73.2598 58.5278 73.3558 58.2398 73.5478C57.9638 73.7398 57.8258 74.0578 57.8258 74.5018C57.8258 74.9458 57.9518 75.2518 58.2038 75.4198C58.4678 75.5878 58.9178 75.6718 59.5538 75.6718C60.1058 75.6718 60.5198 75.6238 60.7958 75.5278V77.3098C60.2558 77.4778 59.6258 77.5618 58.9058 77.5618ZM66.7635 74.2858C66.7635 73.6738 66.8655 73.1698 67.0695 72.7738C67.2735 72.3658 67.6335 72.0838 68.1495 71.9278L66.3135 71.4418V69.1198C66.8775 68.6518 67.5675 68.2618 68.3835 67.9498C69.2115 67.6378 70.1175 67.4818 71.1015 67.4818C72.6375 67.4818 73.7895 67.7938 74.5575 68.4178C75.3375 69.0298 75.7275 70.0618 75.7275 71.5138V77.3818H73.2975V71.4598C73.2975 70.7038 73.1175 70.1698 72.7575 69.8578C72.4095 69.5338 71.8155 69.3718 70.9755 69.3718C70.4595 69.3718 69.9735 69.4498 69.5175 69.6058C69.0615 69.7618 68.6895 69.9598 68.4015 70.1998V70.4518L70.3995 70.9918V72.4678C69.9315 72.5878 69.6135 72.7858 69.4455 73.0618C69.2775 73.3258 69.1935 73.7398 69.1935 74.3038V77.3818H66.7635V74.2858ZM81.3087 71.4058C81.3087 70.7098 81.1707 70.1998 80.8947 69.8758C80.6307 69.5398 80.1387 69.3718 79.4187 69.3718C79.0347 69.3718 78.6207 69.4138 78.1767 69.4978C77.7327 69.5818 77.3307 69.6958 76.9707 69.8398V68.0578C77.3427 67.8898 77.7927 67.7518 78.3207 67.6438C78.8487 67.5358 79.3707 67.4818 79.8867 67.4818C81.2427 67.4818 82.2207 67.7698 82.8207 68.3458C83.4327 68.9218 83.7387 69.8278 83.7387 71.0638V77.3818H81.3087V71.4058ZM90.0624 77.5618C88.6464 77.5618 87.5124 77.3158 86.6604 76.8238C85.8204 76.3318 85.4004 75.5338 85.4004 74.4298C85.4004 73.9858 85.5024 73.5838 85.7064 73.2238C85.9104 72.8518 86.2164 72.5518 86.6244 72.3238C86.2644 72.1678 85.9764 71.9218 85.7604 71.5858C85.5444 71.2378 85.4364 70.8298 85.4364 70.3618C85.4364 69.4378 85.7244 68.7298 86.3004 68.2378C86.8884 67.7338 87.6744 67.4818 88.6584 67.4818C89.3304 67.4818 89.8884 67.5658 90.3324 67.7338V69.5158C89.9844 69.4198 89.5704 69.3718 89.0904 69.3718C88.6344 69.3718 88.2924 69.4498 88.0644 69.6058C87.8484 69.7618 87.7404 70.0138 87.7404 70.3618C87.7404 70.7458 87.8604 71.0158 88.1004 71.1718C88.3404 71.3278 88.7244 71.4058 89.2524 71.4058H90.2604L90.3504 73.1878H89.2344C88.2144 73.1878 87.7044 73.6018 87.7044 74.4298C87.7044 74.8498 87.8844 75.1618 88.2444 75.3658C88.6164 75.5698 89.1864 75.6718 89.9544 75.6718C91.4784 75.6718 92.2404 75.0418 92.2404 73.7818V67.6618H94.6704V73.5658C94.6704 74.9338 94.2804 75.9418 93.5004 76.5898C92.7204 77.2378 91.5744 77.5618 90.0624 77.5618Z" fill="#4A5A67"/>
<path d="M71.0404 41.2617L91.9132 30.3259C88.0539 22.9752 82.2571 16.8011 75.19 12.499L62.9541 32.642C66.3712 34.7222 69.1741 37.7077 71.0404 41.2617Z" fill="#CE5022"/>
<path d="M91.9129 30.3262L71.04 41.262C72.6468 44.3221 73.5606 47.8037 73.5606 51.5004H97.1256C97.1256 43.8555 95.2358 36.6555 91.9129 30.3262Z" fill="#C54C20"/>
<path d="M40.0435 32.6418C43.3828 30.6092 47.3039 29.4381 51.4989 29.4381V5.87305C42.8232 5.87305 34.7134 8.29541 27.8076 12.4992L40.0435 32.6418Z" fill="#E09A37"/>
<path d="M62.9544 32.6422L75.1903 12.4992C68.2845 8.29541 60.1747 5.87305 51.499 5.87305V29.4381C55.6939 29.4385 59.6155 30.6097 62.9544 32.6422Z" fill="#DA8F25"/>
<path d="M31.9577 41.2629L11.0848 30.3271C7.76198 36.6564 5.87207 43.8564 5.87207 51.5013H29.4371C29.4371 47.8047 30.3509 44.3236 31.9577 41.2629Z" fill="#35E292"/>
<path d="M40.0436 32.643L27.8078 12.5C20.7407 16.802 14.9443 22.9762 11.085 30.3269L31.9578 41.2627C33.8241 37.7087 36.6265 34.7231 40.0436 32.643Z" fill="#2AD586"/>
<path d="M51.5 25.3818L59.7272 56.8818H43.2728L51.5 25.3818Z" fill="#4A5A67"/>
<path d="M102 51.5004C102 43.039 99.9083 35.0701 96.2307 28.0648C91.9589 19.9287 85.5434 13.0954 77.7216 8.33379C70.078 3.68105 61.1024 1 51.5 1C41.8976 1 32.9215 3.68105 25.2784 8.33379C17.4566 13.0954 11.0406 19.9287 6.76924 28.0648C3.09123 35.0701 1 43.039 1 51.5004" stroke="#2C2C2C" stroke-miterlimit="10" stroke-linecap="round"/>
</svg>
