<svg width="23" height="28" viewBox="0 0 23 28" fill="none" xmlns="http://www.w3.org/2000/svg">
<path d="M22.322 2.51125C22.3668 2.0988 22.2343 1.6863 21.9578 1.37794C21.6799 1.06892 21.284 0.891602 20.8714 0.891602H1.59814C1.18348 0.891602 0.78754 1.06892 0.511432 1.37705C0.235269 1.68541 0.102848 2.09786 0.147577 2.51037C0.474433 5.51552 2.01048 8.24435 4.39378 10.0981C2.41591 11.9346 1.1779 14.5568 1.1779 17.4686C1.1779 19.8593 2.01241 22.0547 3.40532 23.7805L1.99247 25.3526C1.50012 25.9005 1.54523 26.7437 2.0932 27.236C2.3476 27.4652 2.66629 27.578 2.98414 27.578C3.34927 27.578 3.71312 27.4288 3.97669 27.136L5.34094 25.6182C6.99715 26.8181 9.03311 27.526 11.2348 27.526C13.4365 27.526 15.4724 26.8182 17.1286 25.6182L18.493 27.1361C18.7565 27.4288 19.1203 27.5781 19.4855 27.5781C19.8029 27.5781 20.122 27.4653 20.3764 27.2361C20.9244 26.7437 20.9695 25.9006 20.4771 25.3527L19.0642 23.7806C20.4571 22.0548 21.2916 19.8594 21.2916 17.4687C21.2916 14.5569 20.0536 11.9346 18.0758 10.0982C20.4591 8.24435 21.9952 5.51563 22.322 2.51125ZM11.2348 24.3149C7.45389 24.3149 4.38903 21.2505 4.38903 17.4686C4.38903 13.6879 7.45389 10.6233 11.2348 10.6233C15.0156 10.6233 18.0804 13.6879 18.0804 17.4686C18.0805 21.2505 15.0156 24.3149 11.2348 24.3149Z" fill="white"/>
<path d="M11.7302 16.1634L10.5097 12.5727C10.3517 12.1082 9.84631 11.8598 9.38174 12.0172C8.91677 12.176 8.66794 12.6805 8.82599 13.1459L10.0464 16.7357C9.91446 16.9492 9.83455 17.1993 9.83455 17.4685C9.83455 18.2423 10.4615 18.8692 11.2348 18.8692C12.0081 18.8692 12.6351 18.2422 12.6351 17.4685C12.6351 16.871 12.2582 16.364 11.7302 16.1634Z" fill="white"/>
</svg>
