<svg width="28" height="23" viewBox="0 0 28 23" fill="none" xmlns="http://www.w3.org/2000/svg">
<path d="M19.121 19.8643C18.968 19.8643 18.8212 19.925 18.713 20.0332C18.6048 20.1415 18.544 20.2882 18.544 20.4413V22.0802C18.5407 22.158 18.5533 22.2356 18.5808 22.3083C18.6083 22.3811 18.6502 22.4476 18.7041 22.5037C18.7579 22.5598 18.8226 22.6045 18.8941 22.635C18.9657 22.6655 19.0427 22.6813 19.1205 22.6813C19.1983 22.6813 19.2753 22.6655 19.3468 22.635C19.4184 22.6045 19.483 22.5598 19.5369 22.5037C19.5907 22.4476 19.6327 22.3811 19.6602 22.3083C19.6877 22.2356 19.7002 22.158 19.697 22.0802V20.4413C19.697 20.2884 19.6363 20.1418 19.5283 20.0336C19.4204 19.9254 19.2738 19.8645 19.121 19.8643Z" fill="#4A5A67"/>
<path d="M19.121 8.55637C19.274 8.55637 19.4208 8.49558 19.529 8.38737C19.6372 8.27916 19.698 8.1324 19.698 7.97937V6.33637C19.7012 6.25864 19.6887 6.18106 19.6612 6.10829C19.6337 6.03553 19.5918 5.96907 19.5379 5.91293C19.484 5.85679 19.4194 5.81212 19.3478 5.7816C19.2763 5.75108 19.1993 5.73535 19.1215 5.73535C19.0437 5.73535 18.9667 5.75108 18.8951 5.7816C18.8236 5.81212 18.7589 5.85679 18.7051 5.91293C18.6512 5.96907 18.6093 6.03553 18.5818 6.10829C18.5543 6.18106 18.5418 6.25864 18.545 6.33637V7.97637C18.5446 8.05231 18.5592 8.12758 18.588 8.19787C18.6167 8.26815 18.6591 8.33207 18.7126 8.38595C18.7661 8.43984 18.8297 8.48263 18.8998 8.51187C18.9699 8.54112 19.045 8.55624 19.121 8.55637Z" fill="#4A5A67"/>
<path d="M14.307 18.2074L13.147 19.3665C13.045 19.4758 12.9894 19.6204 12.9919 19.7699C12.9944 19.9194 13.0549 20.0621 13.1606 20.1679C13.2662 20.2737 13.4089 20.3344 13.5584 20.3371C13.7079 20.3398 13.8526 20.2843 13.962 20.1825L15.122 19.0235C15.224 18.9141 15.2797 18.7695 15.2771 18.62C15.2746 18.4705 15.2141 18.3278 15.1085 18.222C15.0028 18.1162 14.8602 18.0555 14.7107 18.0528C14.5612 18.0501 14.4165 18.1056 14.307 18.2074Z" fill="#4A5A67"/>
<path d="M23.528 10.3754C23.6038 10.3755 23.6789 10.3606 23.7489 10.3316C23.8189 10.3026 23.8825 10.2601 23.936 10.2064L25.096 9.04738C25.1527 8.99459 25.1982 8.93092 25.2298 8.86016C25.2613 8.78941 25.2783 8.71302 25.2797 8.63556C25.2811 8.5581 25.2669 8.48115 25.2379 8.40929C25.209 8.33744 25.1658 8.27216 25.1111 8.21734C25.0563 8.16253 24.9911 8.1193 24.9193 8.09024C24.8475 8.06117 24.7705 8.04687 24.693 8.04818C24.6156 8.04949 24.5392 8.06639 24.4684 8.09786C24.3976 8.12934 24.3339 8.17475 24.281 8.23138L23.121 9.39038C23.0407 9.47113 22.986 9.57385 22.9639 9.68561C22.9419 9.79737 22.9534 9.91316 22.997 10.0184C23.0406 10.1236 23.1144 10.2136 23.2091 10.2769C23.3038 10.3403 23.4151 10.3742 23.529 10.3744L23.528 10.3754Z" fill="#4A5A67"/>
<path d="M13.466 14.2084C13.466 14.0553 13.4052 13.9086 13.297 13.8004C13.1888 13.6921 13.042 13.6313 12.889 13.6313H11.25C11.1013 13.6375 10.9607 13.701 10.8576 13.8084C10.7546 13.9159 10.697 14.059 10.697 14.2078C10.697 14.3567 10.7546 14.4998 10.8576 14.6073C10.9607 14.7147 11.1013 14.7782 11.25 14.7843H12.889C13.0419 14.7843 13.1885 14.7237 13.2967 14.6157C13.4048 14.5077 13.4657 14.3612 13.466 14.2084Z" fill="#4A5A67"/>
<path d="M26.994 13.6314H25.354C25.2763 13.6281 25.1987 13.6406 25.1259 13.6681C25.0532 13.6957 24.9867 13.7376 24.9306 13.7915C24.8744 13.8453 24.8298 13.91 24.7992 13.9815C24.7687 14.0531 24.753 14.1301 24.753 14.2079C24.753 14.2857 24.7687 14.3626 24.7992 14.4342C24.8298 14.5058 24.8744 14.5704 24.9306 14.6243C24.9867 14.6781 25.0532 14.7201 25.1259 14.7476C25.1987 14.7751 25.2763 14.7876 25.354 14.7844H26.994C27.0717 14.7876 27.1493 14.7751 27.2221 14.7476C27.2949 14.7201 27.3613 14.6781 27.4174 14.6243C27.4736 14.5704 27.5183 14.5058 27.5488 14.4342C27.5793 14.3626 27.595 14.2857 27.595 14.2079C27.595 14.1301 27.5793 14.0531 27.5488 13.9815C27.5183 13.91 27.4736 13.8453 27.4174 13.7915C27.3613 13.7376 27.2949 13.6957 27.2221 13.6681C27.1493 13.6406 27.0717 13.6281 26.994 13.6314Z" fill="#4A5A67"/>
<path d="M14.307 10.2083C14.3599 10.2649 14.4236 10.3103 14.4944 10.3418C14.5652 10.3733 14.6416 10.3902 14.7191 10.3915C14.7965 10.3928 14.8735 10.3785 14.9453 10.3494C15.0171 10.3204 15.0823 10.2771 15.1371 10.2223C15.1918 10.1675 15.235 10.1022 15.264 10.0304C15.2929 9.95852 15.3071 9.88157 15.3057 9.8041C15.3043 9.72664 15.2873 9.65026 15.2558 9.5795C15.2242 9.50875 15.1787 9.44508 15.122 9.39228L13.964 8.23328C13.8543 8.13388 13.7105 8.08049 13.5624 8.08416C13.4144 8.08783 13.2734 8.14827 13.1687 8.25298C13.064 8.3577 13.0036 8.49866 12.9999 8.64669C12.9962 8.79473 13.0496 8.93851 13.149 9.04828L14.307 10.2083Z" fill="#4A5A67"/>
<path d="M23.937 18.2075C23.8842 18.1508 23.8205 18.1053 23.7498 18.0737C23.679 18.0422 23.6026 18.0252 23.5252 18.0238C23.4477 18.0224 23.3708 18.0366 23.2989 18.0656C23.2271 18.0945 23.1618 18.1377 23.107 18.1924C23.0522 18.2472 23.0089 18.3124 22.9799 18.3842C22.9508 18.456 22.9365 18.533 22.9378 18.6104C22.9391 18.6879 22.956 18.7643 22.9875 18.8351C23.019 18.9059 23.0644 18.9696 23.121 19.0225L24.28 20.1815C24.3328 20.2382 24.3965 20.2837 24.4672 20.3152C24.538 20.3468 24.6144 20.3638 24.6918 20.3652C24.7693 20.3666 24.8462 20.3524 24.9181 20.3234C24.9899 20.2944 25.0552 20.2513 25.11 20.1965C25.1649 20.1418 25.2081 20.0766 25.2372 20.0047C25.2662 19.9329 25.2805 19.856 25.2792 19.7785C25.2779 19.7011 25.261 19.6247 25.2295 19.5539C25.1981 19.4831 25.1526 19.4194 25.096 19.3665L23.937 18.2075Z" fill="#4A5A67"/>
<path d="M19.118 9.72046C18.2304 9.72046 17.3627 9.98367 16.6246 10.4768C15.8866 10.97 15.3113 11.6709 14.9716 12.491C14.632 13.311 14.5431 14.2134 14.7162 15.084C14.8894 15.9546 15.3169 16.7543 15.9445 17.382C16.5722 18.0096 17.3719 18.4371 18.2424 18.6102C19.113 18.7834 20.0154 18.6945 20.8355 18.3548C21.6556 18.0151 22.3565 17.4399 22.8496 16.7019C23.3428 15.9638 23.606 15.0961 23.606 14.2085C23.6047 13.0186 23.1314 11.8778 22.29 11.0364C21.4487 10.195 20.3079 9.72178 19.118 9.72046ZM19.118 17.5435C18.4584 17.5435 17.8136 17.3479 17.2652 16.9814C16.7167 16.615 16.2893 16.0941 16.0369 15.4847C15.7844 14.8753 15.7184 14.2048 15.8471 13.5578C15.9758 12.9109 16.2934 12.3167 16.7598 11.8503C17.2262 11.3838 17.8205 11.0662 18.4674 10.9375C19.1143 10.8089 19.7849 10.8749 20.3943 11.1273C21.0036 11.3797 21.5245 11.8072 21.891 12.3556C22.2574 12.9041 22.453 13.5489 22.453 14.2085C22.4519 15.0926 22.1002 15.9403 21.475 16.5655C20.8498 17.1907 20.0022 17.5424 19.118 17.5435Z" fill="#4A5A67"/>
<path d="M17.438 4.74821C17.3227 4.74821 17.207 4.75155 17.091 4.75821C16.6055 3.64155 15.8044 2.69102 14.7861 2.0234C13.7678 1.35578 12.5767 1.00016 11.359 1.00021C9.73127 0.986612 8.16454 1.61899 7.00232 2.75872C5.8401 3.89845 5.17722 5.45252 5.15901 7.08021C5.15901 7.09222 5.15901 7.10421 5.15901 7.11521C4.00868 7.16931 2.92637 7.6759 2.14795 8.52457C1.36953 9.37324 0.958117 10.4952 1.00337 11.6459C1.04863 12.7966 1.54689 13.8828 2.38956 14.6677C3.23223 15.4526 4.35099 15.8726 5.50201 15.8362H17.438C18.9224 15.849 20.3513 15.2725 21.4113 14.2332C22.4712 13.1939 23.0756 11.7766 23.092 10.2922C23.0756 8.80783 22.4712 7.39054 21.4113 6.35122C20.3513 5.3119 18.9224 4.73541 17.438 4.74821Z" fill="white" stroke="#4A5A67" stroke-width="2"/>
</svg>
