<svg width="30" height="23" viewBox="0 0 30 23" fill="none" xmlns="http://www.w3.org/2000/svg">
<path d="M8.42397 14.1289C8.27094 14.1289 8.12418 14.1897 8.01597 14.2979C7.90776 14.4061 7.84697 14.5529 7.84697 14.7059V16.3449C7.84373 16.4226 7.85624 16.5002 7.88375 16.573C7.91127 16.6457 7.95321 16.7122 8.00706 16.7683C8.06091 16.8245 8.12557 16.8692 8.19712 16.8997C8.26868 16.9302 8.34567 16.9459 8.42347 16.9459C8.50126 16.9459 8.57826 16.9302 8.64981 16.8997C8.72137 16.8692 8.78602 16.8245 8.83987 16.7683C8.89372 16.7122 8.93567 16.6457 8.96318 16.573C8.9907 16.5002 9.0032 16.4226 8.99997 16.3449V14.7059C8.99997 14.553 8.93932 14.4064 8.83133 14.2982C8.72333 14.1901 8.57683 14.1292 8.42397 14.1289Z" fill="#4A5A67"/>
<path d="M8.42397 2.82102C8.577 2.82102 8.72376 2.76022 8.83197 2.65202C8.94018 2.54381 9.00097 2.39705 9.00097 2.24402V0.601016C9.00421 0.523288 8.9917 0.445709 8.96418 0.372942C8.93667 0.300175 8.89473 0.233723 8.84088 0.17758C8.78703 0.121438 8.72237 0.0767657 8.65081 0.0462486C8.57926 0.0157315 8.50227 0 8.42447 0C8.34668 0 8.26968 0.0157315 8.19812 0.0462486C8.12657 0.0767657 8.06191 0.121438 8.00806 0.17758C7.95421 0.233723 7.91227 0.300175 7.88475 0.372942C7.85724 0.445709 7.84474 0.523288 7.84797 0.601016V2.24102C7.84758 2.31696 7.86218 2.39223 7.89093 2.46251C7.91969 2.5328 7.96204 2.59672 8.01555 2.6506C8.06907 2.70449 8.13269 2.74728 8.20277 2.77652C8.27286 2.80576 8.34803 2.82088 8.42397 2.82102Z" fill="#4A5A67"/>
<path d="M3.61 12.4721L2.45 13.6311C2.34797 13.7404 2.29235 13.8851 2.29488 14.0346C2.29741 14.1841 2.35788 14.3268 2.46355 14.4326C2.56922 14.5384 2.71183 14.599 2.86134 14.6017C3.01084 14.6044 3.15556 14.549 3.26499 14.4471L4.425 13.2881C4.52703 13.1788 4.58264 13.0341 4.58011 12.8846C4.57758 12.7351 4.51711 12.5924 4.41144 12.4866C4.30577 12.3808 4.16316 12.3202 4.01365 12.3175C3.86415 12.3148 3.71943 12.3702 3.61 12.4721Z" fill="#4A5A67"/>
<path d="M12.831 4.64003C12.9068 4.64014 12.9818 4.62526 13.0519 4.59626C13.1219 4.56726 13.1855 4.5247 13.239 4.47103L14.399 3.31203C14.4557 3.25924 14.5012 3.19556 14.5327 3.12481C14.5643 3.05406 14.5813 2.97767 14.5827 2.90021C14.5841 2.82275 14.5699 2.7458 14.5409 2.67394C14.5119 2.60209 14.4688 2.53681 14.414 2.48199C14.3593 2.42718 14.2941 2.38395 14.2223 2.35488C14.1504 2.32582 14.0735 2.31152 13.996 2.31283C13.9186 2.31414 13.8422 2.33103 13.7714 2.36251C13.7006 2.39399 13.6368 2.43939 13.584 2.49603L12.424 3.65503C12.3436 3.73578 12.289 3.8385 12.2669 3.95026C12.2448 4.06202 12.2563 4.1778 12.3 4.28303C12.3436 4.38826 12.4174 4.47822 12.5121 4.54157C12.6068 4.60492 12.7181 4.63883 12.832 4.63903L12.831 4.64003Z" fill="#4A5A67"/>
<path d="M2.76898 8.473C2.76898 8.31997 2.70819 8.17321 2.59998 8.065C2.49178 7.95679 2.34501 7.896 2.19198 7.896H0.552984C0.404241 7.90219 0.26365 7.96565 0.160595 8.07308C0.0575407 8.18052 0 8.32362 0 8.4725C0 8.62137 0.0575407 8.76448 0.160595 8.87192C0.26365 8.97935 0.404241 9.0428 0.552984 9.049H2.19198C2.34484 9.049 2.49145 8.98835 2.59963 8.88036C2.70781 8.77236 2.76872 8.62586 2.76898 8.473Z" fill="#4A5A67"/>
<path d="M16.297 7.89601H14.657C14.5793 7.89277 14.5017 7.90528 14.4289 7.9328C14.3562 7.96031 14.2897 8.00225 14.2336 8.0561C14.1774 8.10996 14.1327 8.17461 14.1022 8.24617C14.0717 8.31773 14.056 8.39471 14.056 8.47251C14.056 8.5503 14.0717 8.6273 14.1022 8.69886C14.1327 8.77042 14.1774 8.83506 14.2336 8.88891C14.2897 8.94276 14.3562 8.98471 14.4289 9.01223C14.5017 9.03974 14.5793 9.05225 14.657 9.04901H16.297C16.3747 9.05225 16.4523 9.03974 16.5251 9.01223C16.5978 8.98471 16.6643 8.94276 16.7204 8.88891C16.7766 8.83506 16.8212 8.77042 16.8518 8.69886C16.8823 8.6273 16.898 8.5503 16.898 8.47251C16.898 8.39471 16.8823 8.31773 16.8518 8.24617C16.8212 8.17461 16.7766 8.10996 16.7204 8.0561C16.6643 8.00225 16.5978 7.96031 16.5251 7.9328C16.4523 7.90528 16.3747 7.89277 16.297 7.89601Z" fill="#4A5A67"/>
<path d="M3.61 4.47293C3.66286 4.52956 3.72659 4.57497 3.79738 4.60645C3.86818 4.63792 3.94458 4.65482 4.02205 4.65613C4.09951 4.65744 4.17644 4.64314 4.24826 4.61407C4.32008 4.58501 4.3853 4.54178 4.44005 4.48696C4.4948 4.43215 4.53795 4.36687 4.56693 4.29502C4.5959 4.22317 4.61011 4.14621 4.60871 4.06875C4.6073 3.99129 4.59031 3.9149 4.55875 3.84415C4.52719 3.7734 4.4817 3.70972 4.425 3.65693L3.267 2.49793C3.15723 2.39853 3.01345 2.34514 2.86541 2.34881C2.71737 2.35248 2.57641 2.41292 2.4717 2.51763C2.36699 2.62234 2.30655 2.7633 2.30288 2.91134C2.29921 3.05938 2.3526 3.20316 2.452 3.31293L3.61 4.47293Z" fill="#4A5A67"/>
<path d="M13.24 12.4721C13.1872 12.4154 13.1235 12.3699 13.0528 12.3384C12.982 12.3068 12.9056 12.2898 12.8282 12.2884C12.7507 12.287 12.6737 12.3012 12.6019 12.3302C12.53 12.3592 12.4648 12.4023 12.4099 12.4571C12.3551 12.5118 12.3119 12.5771 12.2828 12.6489C12.2538 12.7207 12.2395 12.7976 12.2408 12.8751C12.2421 12.9525 12.259 13.029 12.2905 13.0998C12.3219 13.1705 12.3674 13.2343 12.424 13.2871L13.583 14.4461C13.6358 14.5028 13.6995 14.5483 13.7702 14.5799C13.841 14.6114 13.9173 14.6284 13.9948 14.6298C14.0723 14.6312 14.1492 14.617 14.2211 14.5881C14.2929 14.5591 14.3582 14.5159 14.413 14.4612C14.4678 14.4064 14.5111 14.3412 14.5401 14.2694C14.5692 14.1976 14.5835 14.1206 14.5822 14.0432C14.5809 13.9657 14.564 13.8893 14.5325 13.8185C14.501 13.7477 14.4556 13.684 14.399 13.6311L13.24 12.4721Z" fill="#4A5A67"/>
<path d="M8.42098 3.98511C7.53334 3.98511 6.66563 4.24832 5.92758 4.74147C5.18954 5.23462 4.6143 5.93555 4.27461 6.75562C3.93493 7.5757 3.84605 8.47808 4.01922 9.34867C4.19239 10.2193 4.61983 11.0189 5.24749 11.6466C5.87515 12.2743 6.67483 12.7017 7.54542 12.8749C8.41601 13.048 9.31839 12.9592 10.1385 12.6195C10.9585 12.2798 11.6595 11.7046 12.1526 10.9665C12.6458 10.2285 12.909 9.36075 12.909 8.47311C12.9077 7.28322 12.4344 6.14245 11.593 5.30107C10.7516 4.45969 9.61087 3.98643 8.42098 3.98511ZM8.42098 11.8081C7.76138 11.8081 7.1166 11.6125 6.56816 11.2461C6.01972 10.8796 5.59226 10.3587 5.33985 9.74936C5.08743 9.13996 5.02138 8.46941 5.15006 7.82248C5.27875 7.17555 5.59638 6.58131 6.06278 6.11491C6.52919 5.6485 7.12343 5.33087 7.77036 5.20219C8.41728 5.0735 9.08784 5.13955 9.69723 5.39197C10.3066 5.64439 10.8275 6.07184 11.1939 6.62028C11.5604 7.16872 11.756 7.81351 11.756 8.47311C11.7549 9.35728 11.4032 10.2049 10.778 10.8301C10.1528 11.4553 9.30516 11.807 8.42098 11.8081Z" fill="#4A5A67"/>
<path d="M23.242 10.0129C23.1267 10.0129 23.011 10.0162 22.895 10.0229C22.4095 8.9062 21.6084 7.95567 20.5901 7.28805C19.5718 6.62043 18.3806 6.26481 17.163 6.26486C15.5353 6.25126 13.9685 6.88364 12.8063 8.02337C11.6441 9.1631 10.9812 10.7172 10.963 12.3449C10.963 12.3569 10.963 12.3689 10.963 12.3799C9.81267 12.434 8.73035 12.9405 7.95193 13.7892C7.17352 14.6379 6.7621 15.7598 6.80736 16.9106C6.85262 18.0613 7.35088 19.1474 8.19355 19.9323C9.03621 20.7173 10.155 21.1373 11.306 21.1009H23.242C24.7264 21.1137 26.1553 20.5372 27.2152 19.4979C28.2752 18.4585 28.8796 17.0412 28.896 15.5569C28.8796 14.0725 28.2752 12.6552 27.2152 11.6159C26.1553 10.5765 24.7264 10.0001 23.242 10.0129Z" fill="white" stroke="#4A5A67" stroke-width="2"/>
</svg>
