<svg width="28" height="30" viewBox="0 0 28 30" fill="none" xmlns="http://www.w3.org/2000/svg">
<path d="M6.22584 18.1775C6.45727 18.5642 6.86737 18.7784 7.28716 18.7784C7.50319 18.7784 7.72217 18.7219 7.92208 18.6024L12.2245 16.0247C12.6823 16.3312 13.2322 16.5109 13.8251 16.5109C15.4189 16.5109 16.7117 15.2178 16.7117 13.6244C16.7117 12.0305 15.419 10.7374 13.8251 10.7374C12.2313 10.7374 10.9395 12.0305 10.9395 13.6244C10.9395 13.7172 10.9586 13.8047 10.9674 13.8955L6.65044 16.4818C6.06529 16.8327 5.87507 17.5918 6.22584 18.1775Z" fill="white"/>
<path d="M16.5844 23.4557C15.7048 23.7033 14.7821 23.8448 13.8251 23.8448C8.18977 23.8448 3.6052 19.2598 3.6052 13.6244C3.6052 7.98908 8.18977 3.40403 13.8251 3.40403C19.4605 3.40403 24.045 7.98908 24.045 13.6244C24.045 13.9127 24.025 14.1957 24.0018 14.4778C24.5556 14.5848 25.0718 14.843 25.4965 15.2346C25.8941 15.6031 26.4362 16.1462 27.0137 16.8269C27.2632 15.7982 27.4105 14.7292 27.4105 13.6244C27.4105 6.13325 21.3163 0.0385132 13.8251 0.0385132C6.33394 0.0385132 0.239624 6.13325 0.239624 13.6244C0.239624 21.1156 6.33388 27.2104 13.8251 27.2104C14.8348 27.2104 15.8157 27.0913 16.7633 26.8814C16.5739 26.2504 16.4698 25.5835 16.4698 24.8923C16.4698 24.4009 16.5147 23.9232 16.5844 23.4557Z" fill="white"/>
<path d="M23.8155 17.0478C23.7046 16.9451 23.5632 16.8934 23.4216 16.8934C23.282 16.8934 23.1416 16.9441 23.0305 17.0459C21.9378 18.0499 18.9421 21.1438 18.9421 24.8924C18.9421 27.3672 20.948 29.3737 23.4235 29.3737C25.898 29.3737 27.905 27.3672 27.905 24.8924C27.905 21.174 24.9065 18.0589 23.8155 17.0478Z" fill="white"/>
</svg>
