<svg width="29" height="29" viewBox="0 0 29 29" fill="none" xmlns="http://www.w3.org/2000/svg">
<path d="M14.5004 24.1885C14.2384 24.1885 13.9871 24.2926 13.8018 24.4778C13.6165 24.6631 13.5124 24.9144 13.5124 25.1765V27.9845C13.5082 28.1168 13.5306 28.2486 13.5784 28.3721C13.6261 28.4956 13.6982 28.6082 13.7903 28.7033C13.8824 28.7984 13.9927 28.874 14.1146 28.9257C14.2365 28.9773 14.3675 29.0039 14.4999 29.0039C14.6323 29.0039 14.7634 28.9773 14.8853 28.9257C15.0072 28.874 15.1175 28.7984 15.2096 28.7033C15.3017 28.6082 15.3738 28.4956 15.4215 28.3721C15.4692 28.2486 15.4916 28.1168 15.4874 27.9845V25.1765C15.4874 24.9146 15.3835 24.6635 15.1984 24.4782C15.0133 24.2929 14.7623 24.1887 14.5004 24.1885Z" fill="#4A5A67"/>
<path d="M14.5004 4.81443C14.7625 4.81443 15.0138 4.71034 15.1991 4.52505C15.3843 4.33976 15.4884 4.08846 15.4884 3.82643V1.01943C15.4926 0.887104 15.4702 0.755283 15.4225 0.631795C15.3748 0.508307 15.3027 0.395672 15.2106 0.30058C15.1185 0.205488 15.0082 0.129878 14.8863 0.0782432C14.7644 0.0266079 14.6333 0 14.5009 0C14.3685 0 14.2375 0.0266079 14.1156 0.0782432C13.9937 0.129878 13.8834 0.205488 13.7913 0.30058C13.6992 0.395672 13.6271 0.508307 13.5794 0.631795C13.5316 0.755283 13.5092 0.887104 13.5134 1.01943V3.82843C13.514 4.08994 13.6182 4.34058 13.8032 4.5254C13.9882 4.71023 14.2389 4.81416 14.5004 4.81443Z" fill="#4A5A67"/>
<path d="M6.25544 21.3473L4.26944 23.3323C4.17752 23.4242 4.1046 23.5334 4.05485 23.6535C4.0051 23.7736 3.97949 23.9023 3.97949 24.0323C3.97949 24.2949 4.08379 24.5467 4.26944 24.7323C4.45509 24.918 4.70689 25.0223 4.96944 25.0223C5.23199 25.0223 5.48379 24.918 5.66944 24.7323L7.65544 22.7473C7.84109 22.5617 7.94539 22.3099 7.94539 22.0473C7.94539 21.7848 7.84109 21.533 7.65544 21.3473C7.46979 21.1617 7.218 21.0574 6.95544 21.0574C6.69289 21.0574 6.4411 21.1617 6.25544 21.3473Z" fill="#4A5A67"/>
<path d="M22.0524 7.94051C22.1824 7.94091 22.3112 7.91558 22.4313 7.86597C22.5515 7.81637 22.6606 7.74349 22.7524 7.65151L24.7384 5.66651C24.9241 5.48086 25.0284 5.22906 25.0284 4.96651C25.0284 4.70396 24.9241 4.45216 24.7384 4.26651C24.6465 4.17459 24.5374 4.10167 24.4173 4.05192C24.2972 4.00217 24.1684 3.97656 24.0384 3.97656C23.7759 3.97656 23.5241 4.08086 23.3384 4.26651L21.3524 6.25451C21.2144 6.3928 21.1204 6.56892 21.0825 6.7606C21.0445 6.95227 21.0643 7.1509 21.1392 7.33136C21.2141 7.51182 21.3409 7.66601 21.5034 7.77444C21.666 7.88287 21.857 7.94066 22.0524 7.94051Z" fill="#4A5A67"/>
<path d="M4.81443 14.5024C4.81443 14.2404 4.71034 13.9891 4.52505 13.8038C4.33976 13.6185 4.08846 13.5144 3.82643 13.5144H1.01943C0.887104 13.5102 0.755283 13.5326 0.631795 13.5804C0.508307 13.6281 0.395672 13.7002 0.30058 13.7923C0.205488 13.8844 0.129878 13.9947 0.0782432 14.1166C0.0266079 14.2385 0 14.3695 0 14.5019C0 14.6343 0.0266079 14.7653 0.0782432 14.8873C0.129878 15.0092 0.205488 15.1195 0.30058 15.2116C0.395672 15.3037 0.508307 15.3757 0.631795 15.4235C0.755283 15.4712 0.887104 15.4936 1.01943 15.4894H3.83143C4.09242 15.4881 4.34229 15.3836 4.52647 15.1986C4.71064 15.0137 4.81417 14.7634 4.81443 14.5024Z" fill="#4A5A67"/>
<path d="M27.9854 13.5144H25.1764C24.92 13.5226 24.6767 13.6302 24.4982 13.8145C24.3197 13.9988 24.2198 14.2453 24.2198 14.5019C24.2198 14.7585 24.3197 15.005 24.4982 15.1893C24.6767 15.3736 24.92 15.4813 25.1764 15.4894H27.9854C28.1177 15.4936 28.2496 15.4712 28.373 15.4235C28.4965 15.3757 28.6092 15.3037 28.7043 15.2116C28.7994 15.1195 28.875 15.0092 28.9266 14.8873C28.9782 14.7653 29.0049 14.6343 29.0049 14.5019C29.0049 14.3695 28.9782 14.2385 28.9266 14.1166C28.875 13.9947 28.7994 13.8844 28.7043 13.7923C28.6092 13.7002 28.4965 13.6281 28.373 13.5804C28.2496 13.5326 28.1177 13.5102 27.9854 13.5144Z" fill="#4A5A67"/>
<path d="M6.25542 7.65142C6.44107 7.83707 6.69287 7.94137 6.95542 7.94137C7.21797 7.94137 7.46977 7.83707 7.65542 7.65142C7.84107 7.46577 7.94537 7.21397 7.94537 6.95142C7.94537 6.68887 7.84107 6.43707 7.65542 6.25142L5.66642 4.27042C5.48077 4.08477 5.22897 3.98047 4.96642 3.98047C4.70387 3.98047 4.45207 4.08477 4.26642 4.27042C4.08077 4.45607 3.97647 4.70787 3.97647 4.97042C3.97647 5.23297 4.08077 5.48477 4.26642 5.67042L6.25542 7.65142Z" fill="#4A5A67"/>
<path d="M22.7474 21.3485C22.5618 21.1629 22.31 21.0586 22.0474 21.0586C21.7849 21.0586 21.5331 21.1629 21.3474 21.3485C21.1618 21.5342 21.0575 21.786 21.0575 22.0485C21.0575 22.3111 21.1618 22.5629 21.3474 22.7485L23.3324 24.7335C23.5181 24.9192 23.7699 25.0235 24.0324 25.0235C24.295 25.0235 24.5468 24.9192 24.7324 24.7335C24.9181 24.5479 25.0224 24.2961 25.0224 24.0335C25.0224 23.771 24.9181 23.5192 24.7324 23.3335L22.7474 21.3485Z" fill="#4A5A67"/>
<path d="M14.4994 6.81445C12.979 6.81505 11.4929 7.26651 10.2291 8.11175C8.96523 8.95699 7.98044 10.158 7.39923 11.563C6.81803 12.968 6.66652 14.5137 6.96387 16.0048C7.26122 17.4959 7.99407 18.8653 9.06973 19.9398C10.1454 21.0144 11.5156 21.7458 13.0069 22.0416C14.4983 22.3374 16.0439 22.1843 17.4483 21.6016C18.8526 21.0189 20.0527 20.0329 20.8966 18.7682C21.7405 17.5035 22.1904 16.0169 22.1894 14.4965C22.1847 12.4591 21.3727 10.5067 19.9313 9.06689C18.49 7.62704 16.5368 6.81709 14.4994 6.81445ZM14.4994 20.2145C13.37 20.2141 12.2661 19.8789 11.3272 19.2512C10.3882 18.6236 9.65643 17.7318 9.22423 16.6883C8.79204 15.6449 8.67886 14.4968 8.899 13.3891C9.11914 12.2814 9.66271 11.2637 10.461 10.4649C11.2593 9.66599 12.2766 9.12171 13.3841 8.90079C14.4917 8.67988 15.6399 8.79226 16.6836 9.22372C17.7273 9.65519 18.6197 10.3864 19.248 11.3249C19.8763 12.2634 20.2122 13.3671 20.2134 14.4965C20.2129 16.0119 19.6108 17.4652 18.5394 18.537C17.468 19.6088 16.0149 20.2114 14.4994 20.2125V20.2145Z" fill="#4A5A67"/>
</svg>
