<svg width="30" height="30" viewBox="0 0 30 30" fill="none" xmlns="http://www.w3.org/2000/svg">
<path d="M2.25004 16.4166H3.66671V26.3333C3.66671 27.8916 4.94171 29.1666 6.50004 29.1666H23.5C25.0584 29.1666 26.3334 27.8916 26.3334 26.3333V16.4166H27.75C28.6 16.4166 29.1667 15.85 29.1667 15C29.1667 14.575 29.025 14.2916 28.7417 14.0083L15.9917 1.25831C15.425 0.691646 14.575 0.691646 14.0084 1.25831L1.25837 14.0083C0.691707 14.575 0.691707 15.425 1.25837 15.9916C1.54171 16.275 1.82504 16.4166 2.25004 16.4166ZM15 4.23331L23.5 12.7333V19.25V26.3333H6.50004V12.7333L15 4.23331Z" fill="white"/>
<path d="M19.5334 17.8333C19.1084 18.6833 17.8334 20.95 15.0001 20.95C12.1667 20.95 10.8917 18.6833 10.4667 17.6917L8.4834 18.4C8.9084 19.5333 10.7501 23.075 15.0001 23.075C19.2501 23.075 21.0917 19.5333 21.5167 18.4L19.5334 17.8333Z" fill="white"/>
</svg>
