<svg width="24" height="34" viewBox="0 0 24 34" fill="none" xmlns="http://www.w3.org/2000/svg">
<path d="M12.4035 11.3048H4.22777C3.73372 11.3048 3.33325 10.9043 3.33325 10.4103V1.58599C3.33325 1.09194 3.73379 0.691467 4.22777 0.691467H12.4035C12.8974 0.691467 13.298 1.09194 13.298 1.58599V10.4103C13.298 10.9043 12.8974 11.3048 12.4035 11.3048ZM5.1223 9.51576H11.509V2.48051H5.1223V9.51576Z" fill="white"/>
<path d="M8.31563 33.0221C5.06281 33.0221 2.4165 30.3758 2.4165 27.123V6.22149C2.4165 5.72744 2.81697 5.32697 3.31103 5.32697H13.3202C13.8141 5.32697 14.2147 5.72744 14.2147 6.22149V13.4623C14.2147 13.9564 13.8142 14.3569 13.3202 14.3569C12.8263 14.3569 12.4257 13.9564 12.4257 13.4623V7.11601H4.20555V27.123C4.20555 29.3892 6.04934 31.233 8.3157 31.233C10.5819 31.233 12.4257 29.3892 12.4257 27.123C12.4257 26.6289 12.8263 26.2284 13.3202 26.2284C13.8142 26.2284 14.2148 26.6289 14.2148 27.123C14.2147 30.3758 11.5684 33.0221 8.31563 33.0221Z" fill="white"/>
<path d="M15.4315 6.97685H1.1997C0.705646 6.97685 0.305176 6.57638 0.305176 6.08233C0.305176 5.58828 0.705646 5.18781 1.1997 5.18781H15.4315C15.9254 5.18781 16.326 5.58828 16.326 6.08233C16.326 6.57638 15.9254 6.97685 15.4315 6.97685Z" fill="white"/>
<path d="M23.6263 21.2618C23.6263 24.0702 21.3496 26.3468 18.5413 26.3468C15.733 26.3468 13.4563 24.0702 13.4563 21.2618C13.4563 16.8334 18.5413 12.3627 18.5413 12.3627C18.5413 12.3627 23.6263 16.8124 23.6263 21.2618Z" fill="white"/>
</svg>
