<svg width="60" height="50" viewBox="0 0 60 50" fill="none" xmlns="http://www.w3.org/2000/svg">
<path d="M23.2414 4.45215C19.609 4.65434 16.086 5.66348 12.9791 7.39166C9.87223 9.11984 7.27582 11.5146 5.41605 14.3674C3.55627 17.2202 2.48955 20.4445 2.3088 23.7593C2.12805 27.0742 2.83876 30.3791 4.37902 33.3861C5.91928 36.3931 8.24237 39.011 11.1459 41.0117C14.0494 43.0125 17.4454 44.3355 21.0378 44.8653C24.6303 45.3952 28.3103 45.1159 31.7573 44.0518C35.2043 42.9877 38.3138 41.171 40.8148 38.76C36.9607 37.873 33.3714 36.215 30.307 33.9061C27.2426 31.5972 24.7799 28.6954 23.0976 25.411C21.4152 22.1265 20.5553 18.5418 20.5802 14.9168C20.6051 11.2917 21.5141 7.71711 23.2414 4.45215Z" fill="white"/>
<path d="M23.6247 49.0452C17.3963 49.0452 11.4231 46.571 7.01894 42.1669C2.61483 37.7628 0.140625 31.7895 0.140625 25.5612C0.140625 19.3328 2.61483 13.3596 7.01894 8.95546C11.4231 4.55135 17.3963 2.07715 23.6247 2.07715C24.411 2.07715 25.196 2.11568 25.9795 2.19275C26.3185 2.22597 26.643 2.34713 26.9209 2.54425C27.1987 2.74137 27.4203 3.00761 27.5636 3.31664C27.7054 3.62626 27.7657 3.96698 27.7387 4.30644C27.7117 4.6459 27.5984 4.97283 27.4095 5.25616C25.5082 8.05448 24.3667 11.2988 24.0969 14.6712C23.8271 18.0435 24.4382 21.4281 25.8703 24.4931C27.3025 27.5581 29.5065 30.1984 32.2663 32.1551C35.0262 34.1118 38.2471 35.3178 41.6134 35.6548C41.9522 35.6892 42.2763 35.8109 42.5539 36.008C42.8316 36.2051 43.0533 36.471 43.1975 36.7795C43.3416 37.088 43.4031 37.4287 43.3761 37.7681C43.3491 38.1076 43.2345 38.4342 43.0434 38.7161C40.8962 41.8927 38.0037 44.495 34.6186 46.2956C31.2335 48.0962 27.4589 49.0402 23.6247 49.0452ZM22.4258 6.05038C19.2443 6.24456 16.1586 7.21371 13.4374 8.8734C10.7162 10.5331 8.44204 12.833 6.81312 15.5727C5.18419 18.3125 4.24988 21.409 4.09157 24.5924C3.93326 27.7759 4.55575 30.9498 5.90482 33.8377C7.25389 36.7255 9.28862 39.2397 11.8317 41.1611C14.3749 43.0826 17.3492 44.3531 20.4958 44.862C23.6423 45.3709 26.8655 45.1026 29.8847 44.0807C32.9038 43.0587 35.6273 41.3141 37.8178 38.9987C34.4422 38.1468 31.2984 36.5545 28.6144 34.3371C25.9304 32.1197 23.7734 29.3329 22.2999 26.1786C20.8263 23.0243 20.0732 19.5817 20.0949 16.1003C20.1167 12.6189 20.9129 9.18595 22.4258 6.05038Z" fill="#4A5A67"/>
<path d="M52.1873 9.80095L45.4236 10.0922L41.3489 4.687C41.1976 4.48667 40.9932 4.33263 40.759 4.24227C40.5248 4.15192 40.2699 4.12884 40.0233 4.17566C39.7766 4.22248 39.548 4.33735 39.3631 4.50725C39.1783 4.67716 39.0447 4.89534 38.9773 5.13719L37.1695 11.662L30.7662 13.87C30.5286 13.9517 30.3186 14.0983 30.16 14.2932C30.0013 14.4881 29.9004 14.7234 29.8686 14.9727C29.8368 15.2219 29.8753 15.4751 29.9799 15.7036C30.0844 15.9321 30.2508 16.1268 30.4603 16.2656L36.1062 20.0055L36.223 26.7736C36.2271 27.0251 36.3015 27.2703 36.4379 27.4816C36.5742 27.6929 36.767 27.8618 36.9944 27.9692C37.2218 28.0765 37.4747 28.1181 37.7245 28.0891C37.9743 28.0601 38.211 27.9618 38.4078 27.8052L43.7065 23.593L50.1844 25.5726C50.4066 25.6406 50.6426 25.6498 50.8694 25.5995C51.0962 25.5493 51.3061 25.4412 51.4788 25.2858L51.5615 25.2113C51.7339 25.0271 51.851 24.7983 51.8996 24.5508C51.9482 24.3033 51.9264 24.0471 51.8365 23.8114L49.4662 17.4678L53.3493 11.9233C53.4946 11.7173 53.5791 11.4747 53.5932 11.223C53.6074 10.9713 53.5506 10.7207 53.4294 10.4997C53.3081 10.2787 53.1272 10.0962 52.9074 9.97293C52.6875 9.84965 52.4375 9.79055 52.1857 9.80237L52.1873 9.80095ZM46.8522 16.5002C46.7267 16.679 46.6467 16.8857 46.619 17.1024C46.5913 17.3191 46.6166 17.5392 46.693 17.7439L48.3624 22.1893L43.8208 20.8054C43.6124 20.7433 43.3922 20.7327 43.1788 20.7743C42.9655 20.8159 42.7654 20.9086 42.5956 21.0443L38.8801 23.9979L38.7984 19.2522C38.7945 19.0338 38.7375 18.8198 38.6324 18.6283C38.5273 18.4369 38.3772 18.2739 38.1951 18.1534L34.2338 15.5296L38.7275 13.981C38.9338 13.91 39.1197 13.79 39.2693 13.6312C39.4189 13.4724 39.5277 13.2797 39.5863 13.0695L40.8582 8.49629L43.7169 12.2886C43.8482 12.463 44.0199 12.6029 44.2173 12.6961C44.4147 12.7894 44.6318 12.8333 44.8499 12.824L49.5946 12.6194L46.8522 16.5002Z" fill="#4A5A67"/>
</svg>
