<svg width="10" height="34" viewBox="0 0 10 34" fill="none" xmlns="http://www.w3.org/2000/svg">
<path d="M4.77442 0.656401L0.597733 4.9702C0.475964 5.09603 0.439541 5.28575 0.505652 5.44989C0.571345 5.61446 0.726237 5.72152 0.898784 5.7219L4.04298 5.72185L4.10096 28.3183L0.959508 28.3183C0.787378 28.3183 0.632067 28.4257 0.566002 28.5899C0.500263 28.7544 0.53678 28.9435 0.658548 29.0693L4.83306 33.3837C4.99947 33.5557 5.26865 33.5558 5.43516 33.3837L9.61181 29.07C9.73362 28.9441 9.77009 28.7545 9.70398 28.5904C9.63824 28.4257 9.4833 28.3186 9.31075 28.3183L6.16935 28.3183L6.10867 11.0856L6.10858 5.7219L9.25003 5.7219C9.42221 5.7219 9.57752 5.61451 9.64353 5.45027C9.70927 5.28575 9.67285 5.0968 9.55108 4.97097L5.37653 0.656497C5.21016 0.484485 4.94084 0.484438 4.77442 0.656401Z" fill="white"/>
</svg>
