<svg width="29" height="13" viewBox="0 0 29 13" fill="none" xmlns="http://www.w3.org/2000/svg">
<path d="M0.197 13V0.763999H6.125C7.341 0.763999 8.24033 1.049 8.823 1.619C9.40567 2.189 9.697 2.99333 9.697 4.032C9.697 4.69067 9.564 5.248 9.298 5.704C9.032 6.14733 8.67733 6.483 8.234 6.711C8.82933 6.87567 9.298 7.17333 9.64 7.604C9.99467 8.022 10.172 8.64267 10.172 9.466C10.172 10.6567 9.849 11.5433 9.203 12.126C8.56967 12.7087 7.63233 13 6.391 13H0.197ZM2.268 5.989H5.84C6.53667 5.989 7.03067 5.83067 7.322 5.514C7.626 5.18467 7.778 4.74767 7.778 4.203C7.778 3.56967 7.626 3.101 7.322 2.797C7.018 2.48033 6.448 2.322 5.612 2.322H2.268V5.989ZM2.268 11.48H5.954C6.68867 11.48 7.227 11.328 7.569 11.024C7.911 10.7073 8.082 10.1627 8.082 9.39C8.082 8.75667 7.911 8.288 7.569 7.984C7.23967 7.66733 6.63167 7.509 5.745 7.509H2.268V11.48ZM12.1833 13V0.763999H14.3113L18.1873 8.687L22.0443 0.763999H24.1723V13H22.1203V4.127L18.8143 10.891H17.5603L14.2353 4.127V13H12.1833ZM26.5632 13V0.763999H28.6342V13H26.5632Z" fill="white"/>
</svg>
