<svg width="30" height="25" viewBox="0 0 30 25" fill="none" xmlns="http://www.w3.org/2000/svg">
<path d="M14.9629 24.1332C14.8131 24.1332 14.6633 24.0989 14.5258 24.0301C14.3872 23.9607 11.0941 22.3014 7.75349 19.5176C5.77 17.8647 4.18399 16.1563 3.03975 14.4398C1.56566 12.2288 0.818237 9.99279 0.818237 7.79413C0.818237 3.62495 4.21009 0.233093 8.37928 0.233093C11.1991 0.233093 13.6632 1.78433 14.9629 4.07853C16.2626 1.78433 18.7268 0.233093 21.5464 0.233093C25.7155 0.233093 29.1075 3.62495 29.1075 7.79413C29.1075 9.99279 28.3601 12.2288 26.886 14.4398C25.7416 16.1563 24.1557 17.8647 22.1722 19.5177C18.8317 22.3015 15.5386 23.9608 15.4 24.0301C15.2624 24.0989 15.1126 24.1332 14.9629 24.1332ZM8.37928 2.188C5.28813 2.188 2.77324 4.70289 2.77324 7.79404C2.77324 15.0074 12.7349 20.8367 14.9626 22.0496C17.1894 20.8352 27.1526 14.9969 27.1526 7.79404C27.1526 4.70289 24.6377 2.188 21.5465 2.188C18.4553 2.188 15.9405 4.70289 15.9405 7.79404C15.9405 8.33382 15.5027 8.77159 14.963 8.77159C14.4232 8.77159 13.9854 8.33382 13.9854 7.79404C13.9853 4.70299 11.4705 2.188 8.37928 2.188Z" fill="white"/>
</svg>
