<svg width="63" height="63" viewBox="0 0 63 63" fill="none" xmlns="http://www.w3.org/2000/svg">
<path d="M31.041 52.5527C30.48 52.5527 29.942 52.7755 29.5454 53.1722C29.1487 53.5688 28.9259 54.1068 28.9259 54.6678V60.679C28.9169 60.9623 28.9649 61.2445 29.0671 61.5088C29.1692 61.7732 29.3235 62.0143 29.5207 62.2179C29.7179 62.4215 29.954 62.5833 30.215 62.6939C30.4759 62.8044 30.7565 62.8613 31.0399 62.8613C31.3233 62.8613 31.6038 62.8044 31.8648 62.6939C32.1258 62.5833 32.3619 62.4215 32.5591 62.2179C32.7562 62.0143 32.9105 61.7732 33.0127 61.5088C33.1149 61.2445 33.1629 60.9623 33.1539 60.679V54.6678C33.1539 54.1072 32.9313 53.5695 32.5351 53.1729C32.139 52.7764 31.6015 52.5533 31.041 52.5527Z" fill="#4A5A67"/>
<path d="M31.0417 11.078C31.6027 11.078 32.1406 10.8551 32.5373 10.4585C32.9339 10.0618 33.1568 9.52386 33.1568 8.96291V2.95383C33.1658 2.67055 33.1178 2.38836 33.0156 2.124C32.9134 1.85964 32.7592 1.61852 32.562 1.41495C32.3648 1.21138 32.1287 1.04952 31.8677 0.938983C31.6067 0.828445 31.3262 0.771484 31.0428 0.771484C30.7594 0.771484 30.4788 0.828445 30.2179 0.938983C29.9569 1.04952 29.7208 1.21138 29.5236 1.41495C29.3264 1.61852 29.1721 1.85964 29.07 2.124C28.9678 2.38836 28.9198 2.67055 28.9288 2.95383V8.96719C28.9299 9.52703 29.153 10.0636 29.549 10.4592C29.9451 10.8549 30.4819 11.0774 31.0417 11.078Z" fill="#4A5A67"/>
<path d="M13.3918 46.4713L9.14024 50.7207C8.94345 50.9175 8.78735 51.1511 8.68085 51.4082C8.57435 51.6653 8.51953 51.9409 8.51953 52.2192C8.51953 52.7813 8.74281 53.3203 9.14024 53.7177C9.53767 54.1152 10.0767 54.3384 10.6388 54.3384C11.2008 54.3384 11.7399 54.1152 12.1373 53.7177L16.3888 49.4683C16.7863 49.0709 17.0095 48.5319 17.0095 47.9698C17.0095 47.4078 16.7863 46.8687 16.3888 46.4713C15.9914 46.0739 15.4524 45.8506 14.8903 45.8506C14.3282 45.8506 13.7892 46.0739 13.3918 46.4713Z" fill="#4A5A67"/>
<path d="M47.2085 17.77C47.4867 17.7709 47.7624 17.7166 48.0196 17.6104C48.2768 17.5043 48.5104 17.3482 48.707 17.1513L52.9585 12.9019C53.356 12.5045 53.5793 11.9655 53.5793 11.4034C53.5793 10.8414 53.356 10.3023 52.9585 9.90489C52.7618 9.7081 52.5281 9.552 52.271 9.4455C52.0139 9.339 51.7383 9.28418 51.46 9.28418C50.898 9.28418 50.3589 9.50746 49.9615 9.90489L45.71 14.1607C45.4144 14.4567 45.2133 14.8338 45.1321 15.2441C45.0508 15.6544 45.0931 16.0796 45.2535 16.466C45.4139 16.8523 45.6852 17.1824 46.0332 17.4145C46.3812 17.6466 46.7902 17.7703 47.2085 17.77Z" fill="#4A5A67"/>
<path d="M10.3065 31.8173C10.3065 31.2564 10.0837 30.7184 9.687 30.3217C9.29035 29.9251 8.75238 29.7022 8.19143 29.7022H2.18234C1.89907 29.6932 1.61687 29.7412 1.35252 29.8434C1.08816 29.9456 0.847035 30.0999 0.643467 30.2971C0.439898 30.4943 0.278037 30.7304 0.167499 30.9913C0.0569609 31.2523 0 31.5328 0 31.8162C0 32.0997 0.0569609 32.3802 0.167499 32.6412C0.278037 32.9021 0.439898 33.1382 0.643467 33.3354C0.847035 33.5326 1.08816 33.6869 1.35252 33.7891C1.61687 33.8912 1.89907 33.9393 2.18234 33.9302H8.20213C8.76085 33.9274 9.29576 33.7036 9.69004 33.3077C10.0843 32.9119 10.3059 32.376 10.3065 31.8173Z" fill="#4A5A67"/>
<path d="M59.9098 29.7022H53.8964C53.3474 29.7197 52.8267 29.9501 52.4445 30.3447C52.0623 30.7392 51.8486 31.2669 51.8486 31.8162C51.8486 32.3655 52.0623 32.8933 52.4445 33.2878C52.8267 33.6824 53.3474 33.9128 53.8964 33.9302H59.9098C60.193 33.9393 60.4752 33.8912 60.7396 33.7891C61.004 33.6869 61.2451 33.5326 61.4487 33.3354C61.6522 33.1382 61.8141 32.9021 61.9246 32.6412C62.0352 32.3802 62.0921 32.0997 62.0921 31.8162C62.0921 31.5328 62.0352 31.2523 61.9246 30.9913C61.8141 30.7304 61.6522 30.4943 61.4487 30.2971C61.2451 30.0999 61.004 29.9456 60.7396 29.8434C60.4752 29.7412 60.193 29.6932 59.9098 29.7022Z" fill="#4A5A67"/>
<path d="M13.3914 17.1516C13.7888 17.549 14.3278 17.7723 14.8899 17.7723C15.4519 17.7723 15.991 17.549 16.3884 17.1516C16.7858 16.7541 17.0091 16.2151 17.0091 15.653C17.0091 15.091 16.7858 14.5519 16.3884 14.1545L12.1305 9.91368C11.733 9.51624 11.194 9.29297 10.6319 9.29297C10.0699 9.29297 9.53084 9.51624 9.1334 9.91368C8.73597 10.3111 8.5127 10.8501 8.5127 11.4122C8.5127 11.9743 8.73597 12.5133 9.1334 12.9107L13.3914 17.1516Z" fill="#4A5A67"/>
<path d="M48.6968 46.4732C48.2994 46.0758 47.7604 45.8525 47.1983 45.8525C46.6363 45.8525 46.0972 46.0758 45.6998 46.4732C45.3024 46.8707 45.0791 47.4097 45.0791 47.9718C45.0791 48.5338 45.3024 49.0728 45.6998 49.4703L49.9492 53.7197C50.3466 54.1171 50.8857 54.3404 51.4477 54.3404C52.0098 54.3404 52.5488 54.1171 52.9462 53.7197C53.3437 53.3222 53.5669 52.7832 53.5669 52.2212C53.5669 51.6591 53.3437 51.1201 52.9462 50.7226L48.6968 46.4732Z" fill="#4A5A67"/>
<path d="M44.9557 31.8123C44.9557 39.4973 38.7258 45.7272 31.0409 45.7272C23.3559 45.7272 17.126 39.4973 17.126 31.8123C17.126 24.1274 23.3559 17.8975 31.0409 17.8975C38.7258 17.8975 44.9557 24.1274 44.9557 31.8123Z" fill="white"/>
<path d="M31.0394 15.3594C27.7845 15.3606 24.6031 16.3271 21.8976 18.1366C19.192 19.946 17.0838 22.5172 15.8396 25.5248C14.5954 28.5325 14.2711 31.8416 14.9076 35.0336C15.5442 38.2256 17.113 41.1572 19.4157 43.4575C21.7185 45.7578 24.6517 47.3236 27.8443 47.9568C31.037 48.5901 34.3457 48.2623 37.3521 47.0149C40.3585 45.7676 42.9274 43.6567 44.7341 40.9493C46.5407 38.2419 47.5039 35.0595 47.5017 31.8046C47.4916 27.4432 45.7533 23.2636 42.6677 20.1813C39.5822 17.0989 35.4008 15.365 31.0394 15.3594ZM31.0394 44.0454C28.6216 44.0446 26.2584 43.327 24.2484 41.9834C22.2383 40.6399 20.6717 38.7306 19.7465 36.4969C18.8213 34.2632 18.579 31.8054 19.0502 29.434C19.5215 27.0626 20.6852 24.8842 22.3942 23.174C24.1032 21.4638 26.2808 20.2986 28.6518 19.8257C31.0228 19.3528 33.4809 19.5934 35.7152 20.517C37.9495 21.4407 39.8599 23.006 41.2049 25.0151C42.5499 27.0242 43.2691 29.3869 43.2716 31.8046C43.2705 35.0489 41.9815 38.16 39.6879 40.4544C37.3943 42.7488 34.2836 44.0389 31.0394 44.0411V44.0454Z" fill="#4A5A67"/>
</svg>
