<svg width="17" height="16" viewBox="0 0 17 16" fill="none" xmlns="http://www.w3.org/2000/svg">
<path d="M15.0458 4.09146L5.86494 13.3857L3.56734 10.9791L12.7093 1.72377C12.8545 1.58364 13.0484 1.50534 13.2501 1.50534C13.4519 1.50534 13.6458 1.58364 13.791 1.72377L15.0458 3.02011C15.1847 3.16387 15.2623 3.35592 15.2623 3.55579C15.2623 3.75565 15.1847 3.9477 15.0458 4.09146ZM2.9858 12.2555L4.56167 13.9084L2.41119 14.374L2.9858 12.2555ZM15.9761 2.10454L14.7178 0.811652C14.5285 0.613436 14.3012 0.45543 14.0494 0.347081C13.7976 0.238731 13.5266 0.182262 13.2525 0.18105C12.9784 0.179838 12.7068 0.233909 12.4541 0.340028C12.2014 0.446148 11.9726 0.602137 11.7816 0.798671L2.19657 10.5066C2.11632 10.5864 2.05869 10.6862 2.02955 10.7956L0.874263 15.0671C0.726282 15.6123 1.00926 15.9498 1.5034 15.8918C1.5484 15.8858 6.02503 14.9261 6.02503 14.9261C6.14837 14.8988 6.26111 14.8363 6.34955 14.7461L15.964 5.00963C16.3438 4.6225 16.5577 4.10249 16.5601 3.56015C16.5625 3.01781 16.3533 2.49591 15.977 2.1054L15.9761 2.10454Z" fill="white"/>
</svg>
