<svg width="20" height="20" viewBox="0 0 20 20" fill="none" xmlns="http://www.w3.org/2000/svg">
<path d="M19.0965 16.8475L15.6119 13.3629L15.7361 13.1602C16.8745 11.3865 17.3172 9.25455 16.9791 7.1742C16.641 5.09385 15.546 3.21184 13.9045 1.88986C12.263 0.567875 10.1908 -0.100804 8.08623 0.0123269C5.98162 0.125457 3.99307 1.01241 2.50274 2.50274C1.01241 3.99307 0.125457 5.98162 0.0123269 8.08623C-0.100804 10.1908 0.567875 12.263 1.88986 13.9045C3.21184 15.546 5.09385 16.641 7.1742 16.9791C9.25455 17.3172 11.3865 16.8745 13.1602 15.7361L13.3629 15.6119L16.8475 19.0965C17.1458 19.3947 17.5503 19.5623 17.972 19.5623C18.3938 19.5623 18.7983 19.3947 19.0965 19.0965C19.3948 18.7983 19.5623 18.3938 19.5623 17.972C19.5623 17.5503 19.3948 17.1458 19.0965 16.8475V16.8475ZM8.59685 15.1608C7.3038 15.1608 6.03978 14.7773 4.96465 14.059C3.88952 13.3406 3.05156 12.3195 2.55673 11.1249C2.0619 9.93027 1.93243 8.61574 2.18469 7.34754C2.43695 6.07934 3.05962 4.91442 3.97394 4.00009C4.88827 3.08577 6.05319 2.4631 7.32139 2.21084C8.5896 1.95858 9.90412 2.08805 11.0987 2.58288C12.2934 3.07771 13.3144 3.91567 14.0328 4.9908C14.7512 6.06593 15.1346 7.32995 15.1346 8.623C15.126 10.3543 14.4345 12.0122 13.2103 13.2364C11.986 14.4606 10.3281 15.1522 8.59685 15.1608V15.1608Z" fill="white"/>
<path d="M11.6828 9.50556H9.50568V11.6892C9.51634 11.8146 9.50085 11.9408 9.46019 12.0599C9.41953 12.1789 9.35458 12.2883 9.26946 12.3809C9.18433 12.4736 9.0809 12.5476 8.96569 12.5982C8.85049 12.6488 8.72603 12.6749 8.6002 12.6749C8.47437 12.6749 8.34991 12.6488 8.2347 12.5982C8.1195 12.5476 8.01606 12.4736 7.93094 12.3809C7.84582 12.2883 7.78087 12.1789 7.74021 12.0599C7.69954 11.9408 7.68405 11.8146 7.69472 11.6892V9.50556H5.50456C5.37918 9.51622 5.25296 9.50073 5.13388 9.46007C5.0148 9.4194 4.90546 9.35445 4.8128 9.26933C4.72013 9.18421 4.64615 9.08077 4.59554 8.96557C4.54493 8.85036 4.5188 8.72591 4.5188 8.60008C4.5188 8.47425 4.54493 8.34979 4.59554 8.23458C4.64615 8.11938 4.72013 8.01594 4.8128 7.93082C4.90546 7.8457 5.0148 7.78075 5.13388 7.74008C5.25296 7.69942 5.37918 7.68393 5.50456 7.69459H7.68818V5.50444C7.67751 5.37906 7.69301 5.25284 7.73367 5.13376C7.77433 5.01468 7.83928 4.90534 7.9244 4.81267C8.00952 4.72 8.11296 4.64602 8.22817 4.59542C8.34337 4.54481 8.46783 4.51868 8.59366 4.51868C8.71949 4.51868 8.84395 4.54481 8.95915 4.59542C9.07436 4.64602 9.1778 4.72 9.26292 4.81267C9.34804 4.90534 9.41299 5.01468 9.45365 5.13376C9.49432 5.25284 9.50981 5.37906 9.49914 5.50444V7.68805H11.6828C11.8081 7.67739 11.9344 7.69288 12.0534 7.73355C12.1725 7.77421 12.2819 7.83916 12.3745 7.92428C12.4672 8.0094 12.5412 8.11284 12.5918 8.22804C12.6424 8.34325 12.6685 8.46771 12.6685 8.59354C12.6685 8.71937 12.6424 8.84383 12.5918 8.95903C12.5412 9.07423 12.4672 9.17767 12.3745 9.26279C12.2819 9.34792 12.1725 9.41287 12.0534 9.45353C11.9344 9.49419 11.8081 9.50968 11.6828 9.49902V9.50556Z" fill="white"/>
</svg>
