<svg width="28" height="23" viewBox="0 0 28 23" fill="none" xmlns="http://www.w3.org/2000/svg">
<path d="M10.97 22.8306C8.06057 22.8306 5.27031 21.6749 3.21304 19.6176C1.15577 17.5603 0 14.7701 0 11.8606C0 8.9512 1.15577 6.16094 3.21304 4.10366C5.27031 2.04639 8.06057 0.890625 10.97 0.890625C11.3373 0.890625 11.704 0.908625 12.07 0.944625C12.2284 0.960142 12.38 1.01674 12.5097 1.10882C12.6395 1.2009 12.743 1.32527 12.81 1.46962C12.8762 1.61425 12.9044 1.77341 12.8918 1.93198C12.8792 2.09056 12.8262 2.24327 12.738 2.37562C11.8499 3.68279 11.3166 5.19831 11.1906 6.77361C11.0646 8.34891 11.35 9.92994 12.019 11.3617C12.688 12.7934 13.7176 14.0268 15.0067 14.9408C16.2959 15.8548 17.8005 16.4182 19.373 16.5756C19.5313 16.5917 19.6826 16.6485 19.8123 16.7406C19.9421 16.8327 20.0456 16.9569 20.113 17.101C20.1803 17.2451 20.209 17.4042 20.1964 17.5628C20.1838 17.7214 20.1303 17.874 20.041 18.0056C19.038 19.4895 17.6868 20.7051 16.1055 21.5462C14.5243 22.3873 12.761 22.8283 10.97 22.8306ZM10.41 2.74662C8.92384 2.83733 7.48241 3.29004 6.21126 4.06533C4.94011 4.84062 3.87781 5.91496 3.11689 7.19476C2.35598 8.47457 1.91954 9.92101 1.84559 11.4081C1.77164 12.8952 2.06242 14.3778 2.6926 15.7268C3.32279 17.0758 4.27326 18.2502 5.46122 19.1478C6.64918 20.0453 8.03859 20.6388 9.50842 20.8765C10.9782 21.1142 12.4839 20.9889 13.8942 20.5116C15.3045 20.0342 16.5767 19.2192 17.6 18.1376C16.0231 17.7397 14.5546 16.9959 13.3008 15.9601C12.0471 14.9243 11.0395 13.6225 10.3512 12.149C9.66282 10.6756 9.311 9.06746 9.32118 7.4412C9.33136 5.81495 9.70329 4.21133 10.41 2.74662Z" fill="#4A5A67"/>
<path d="M24.3124 4.49806L21.1529 4.63411L19.2495 2.1092C19.1788 2.01562 19.0834 1.94366 18.974 1.90146C18.8646 1.85925 18.7455 1.84847 18.6303 1.87034C18.5151 1.89221 18.4083 1.94587 18.3219 2.02523C18.2356 2.1046 18.1732 2.20652 18.1417 2.31949L17.2972 5.36741L14.3061 6.3988C14.1951 6.43699 14.097 6.50547 14.0229 6.59651C13.9488 6.68754 13.9017 6.79748 13.8868 6.91391C13.8719 7.03034 13.8899 7.14861 13.9388 7.25535C13.9876 7.36208 14.0653 7.45302 14.1632 7.51787L16.8006 9.26484L16.8551 12.4264C16.857 12.5439 16.8918 12.6584 16.9555 12.7571C17.0192 12.8558 17.1092 12.9348 17.2154 12.9849C17.3217 13.0351 17.4398 13.0545 17.5565 13.0409C17.6732 13.0274 17.7837 12.9814 17.8757 12.9083L20.3508 10.9407L23.3768 11.8654C23.4806 11.8971 23.5908 11.9015 23.6968 11.878C23.8027 11.8545 23.9008 11.804 23.9815 11.7314L24.0201 11.6966C24.1006 11.6106 24.1553 11.5037 24.1781 11.3881C24.2008 11.2725 24.1906 11.1528 24.1486 11.0427L23.0414 8.07946L24.8552 5.48948C24.9231 5.39325 24.9626 5.2799 24.9692 5.16234C24.9758 5.04477 24.9493 4.92771 24.8926 4.82448C24.836 4.72124 24.7515 4.63598 24.6488 4.57839C24.5461 4.5208 24.4293 4.4932 24.3117 4.49872L24.3124 4.49806ZM21.8203 7.62743C21.7617 7.71098 21.7243 7.80753 21.7113 7.90874C21.6984 8.00996 21.7102 8.1128 21.7459 8.2084L22.5257 10.285L20.4042 9.6385C20.3069 9.60953 20.204 9.60455 20.1043 9.62399C20.0047 9.64343 19.9112 9.68671 19.8319 9.75013L18.0963 11.1298L18.0581 8.91297C18.0563 8.81098 18.0297 8.71097 17.9806 8.62156C17.9315 8.53214 17.8614 8.45601 17.7763 8.39972L15.9259 7.17407L18.025 6.45068C18.1214 6.41751 18.2082 6.36143 18.2781 6.28726C18.348 6.21309 18.3988 6.12306 18.4262 6.0249L19.0203 3.88861L20.3557 5.66011C20.417 5.74158 20.4972 5.80691 20.5894 5.85047C20.6817 5.89404 20.7831 5.91453 20.8849 5.91019L23.1013 5.81462L21.8203 7.62743Z" fill="#4A5A67"/>
</svg>
